# Blender v2.80 (sub 75) OBJ File: ''
# www.blender.org
mtllib ./models/cartello.mtl
o Cartello
v 0.192336 0.264758 -0.180154
v -0.194350 5.647929 -0.177257
v 0.191995 5.647929 -0.179806
v -0.194696 0.264758 -0.177601
v -0.191802 5.647929 0.209086
v -0.192143 0.264758 0.209433
v 0.589243 -0.000000 0.596061
v 0.581521 0.264758 -0.574506
v 0.589243 0.264758 0.596061
v 0.581521 -0.000000 -0.574506
v -0.581328 0.264758 0.603783
v -0.589049 -0.000000 -0.566784
v -0.581328 -0.000000 0.603783
v -0.589049 0.264758 -0.566784
v 0.194889 0.264758 0.206880
v 0.194543 5.647929 0.206537
v -0.375116 4.762471 1.863705
v -0.376886 2.212934 1.595479
v -0.375033 2.496185 1.877059
v -0.377001 5.045721 1.578788
v -0.397795 2.212934 -1.573667
v -0.397904 5.045721 -1.590365
v -0.399674 2.496185 -1.858588
v -0.399762 4.762471 -1.871948
v -0.128812 2.212934 1.593841
v -0.127044 4.762471 1.862068
v -0.126950 2.496185 1.875423
v -0.128920 5.045721 1.577150
v -0.149716 2.212934 -1.575306
v -0.149827 5.045721 -1.592004
v -0.151595 2.496185 -1.860225
v -0.151683 4.762471 -1.873584
vt 0.964808 0.227471
vt 0.051230 0.294212
vt 0.051151 0.228640
vt 0.964888 0.293160
vt 0.051144 0.223024
vt 0.964721 0.156283
vt 0.964801 0.221855
vt 0.051064 0.157335
vt 0.060273 0.851600
vt 0.003198 0.838764
vt 0.060258 0.838694
vt 0.003214 0.851669
vt 0.003181 0.824183
vt 0.060256 0.837019
vt 0.003196 0.837088
vt 0.060240 0.824113
vt 0.060348 0.912756
vt 0.003735 0.970261
vt 0.003289 0.913202
vt 0.060794 0.969815
vt 0.003163 0.809601
vt 0.060238 0.822438
vt 0.003179 0.822507
vt 0.060222 0.809532
vt 0.085364 0.777246
vt 0.028289 0.764410
vt 0.085348 0.764341
vt 0.028304 0.777316
vt 0.051057 0.151947
vt 0.964635 0.085206
vt 0.964715 0.150778
vt 0.050978 0.086258
vt 0.050971 0.080870
vt 0.964548 0.014129
vt 0.964628 0.079701
vt 0.050891 0.015181
vt 0.061352 0.817940
vt 0.080083 0.836874
vt 0.061251 0.836773
vt 0.080185 0.818042
vt 0.978152 0.910035
vt 0.913219 0.320284
vt 0.978729 0.385529
vt 0.912492 0.975904
vt 0.179439 0.323762
vt 0.178665 0.979405
vt 0.113778 0.389630
vt 0.113155 0.914160
vt 0.997127 0.151216
vt 0.997127 0.151216
vt 0.997127 0.151216
vt 0.997127 0.151216
vt 0.997127 0.151216
vt 0.997127 0.151216
vt 0.997127 0.151216
vt 0.997127 0.151216
vt 0.097282 0.983344
vt 0.097282 0.983344
vt 0.097282 0.983344
vt 0.097282 0.983344
vt 0.097282 0.983344
vt 0.097282 0.983344
vt 0.097282 0.983344
vt 0.097282 0.983344
vt 0.097282 0.983344
vt 0.097282 0.983344
vt 0.097282 0.983344
vt 0.097282 0.983344
vt 0.097282 0.983344
vt 0.097282 0.983344
vt 0.097282 0.983344
vt 0.097282 0.983344
vt 0.003286 0.910589
vt 0.022587 0.872729
vt 0.022485 0.891595
vt 0.003593 0.853529
vt 0.060346 0.910896
vt 0.041453 0.872830
vt 0.041351 0.891696
vt 0.060653 0.853836
vn -0.0066 0.0001 -1.0000
vn -1.0000 0.0001 0.0066
vn 1.0000 0.0000 -0.0066
vn -1.0000 0.0000 0.0066
vn 0.0000 -1.0000 -0.0000
vn -0.0066 0.0000 -1.0000
vn 0.0066 0.0000 1.0000
vn 1.0000 0.0001 -0.0066
vn 0.0066 0.0001 1.0000
vn 0.0000 1.0000 -0.0000
vn -0.0025 0.9233 -0.3840
vn 0.0025 0.9244 0.3813
vn 0.0061 0.3868 0.9222
vn -0.0061 0.3786 -0.9255
vn 0.0061 -0.3786 0.9255
vn -0.0061 -0.3868 -0.9222
vn 0.0025 -0.9233 0.3840
vn -0.0025 -0.9244 -0.3813
usemtl Prop_RoadClosed_Sign_1SG
s 1
f 1/1/1 2/2/1 3/3/1
f 1/1/1 4/4/1 2/2/1
f 4/5/2 5/6/2 2/7/2
f 4/5/2 6/8/2 5/6/2
f 7/9/3 8/10/3 9/11/3
f 7/9/3 10/12/3 8/10/3
f 11/13/4 12/14/4 13/15/4
f 11/13/4 14/16/4 12/14/4
f 13/17/5 10/18/5 7/19/5
f 13/17/5 12/20/5 10/18/5
f 10/21/6 14/22/6 8/23/6
f 10/21/6 12/24/6 14/22/6
f 13/25/7 9/26/7 11/27/7
f 13/25/7 7/28/7 9/26/7
f 15/29/8 3/30/8 16/31/8
f 15/29/8 1/32/8 3/30/8
f 6/33/9 16/34/9 5/35/9
f 6/33/9 15/36/9 16/34/9
f 3/37/10 5/38/10 16/39/10
f 3/37/10 2/40/10 5/38/10
f 17/41/4 18/42/4 19/43/4
f 18/42/4 17/41/4 20/44/4
f 18/42/4 20/44/4 21/45/4
f 21/45/4 20/44/4 22/46/4
f 21/45/4 22/46/4 23/47/4
f 23/47/4 22/46/4 24/48/4
f 25/49/3 26/50/3 27/51/3
f 26/50/3 25/49/3 28/52/3
f 28/52/3 25/49/3 29/53/3
f 28/52/3 29/53/3 30/54/3
f 30/54/3 29/53/3 31/55/3
f 30/54/3 31/55/3 32/56/3
f 30/57/11 20/58/12 28/59/12
f 26/60/13 28/59/12 20/58/12
f 30/57/11 22/61/11 20/58/12
f 26/60/13 20/58/12 17/62/13
f 30/57/11 24/63/14 22/61/11
f 30/57/11 32/64/14 24/63/14
f 19/65/15 26/60/13 17/62/13
f 19/65/15 27/66/15 26/60/13
f 24/63/14 32/64/14 31/67/16
f 24/63/14 31/67/16 23/68/16
f 25/69/17 27/66/15 19/65/15
f 25/69/17 19/65/15 18/70/17
f 31/67/16 21/71/18 23/68/16
f 25/69/17 18/70/17 21/71/18
f 31/67/16 29/72/18 21/71/18
f 25/69/17 21/71/18 29/72/18
f 9/73/10 1/74/10 15/75/10
f 9/73/10 8/76/10 1/74/10
f 11/77/10 9/73/10 15/75/10
f 8/76/10 4/78/10 1/74/10
f 11/77/10 15/75/10 6/79/10
f 8/76/10 14/80/10 4/78/10
f 14/80/10 11/77/10 6/79/10
f 14/80/10 6/79/10 4/78/10
